<?xml version="1.0" encoding="utf-8"?>
<!-- Generator: Adobe Illustrator 16.0.0, SVG Export Plug-In . SVG Version: 6.00 Build 0)  -->
<!DOCTYPE svg PUBLIC "-//W3C//DTD SVG 1.1//EN" "http://www.w3.org/Graphics/SVG/1.1/DTD/svg11.dtd">
<svg version="1.1" id="Layer_1" xmlns="http://www.w3.org/2000/svg" xmlns:xlink="http://www.w3.org/1999/xlink" x="0px" y="0px"
	 width="534.054px" height="192.02px" viewBox="0 0 534.054 192.02" enable-background="new 0 0 534.054 192.02"
	 xml:space="preserve">
<g>
	<defs>
		<rect id="SVGID_1_" x="-134.793" y="-300.81" width="800" height="800"/>
	</defs>
	<clipPath id="SVGID_2_">
		<use xlink:href="#SVGID_1_"  overflow="visible"/>
	</clipPath>
	<path clip-path="url(#SVGID_2_)" fill="#FFFFFF" d="M200.207,87.19h30c5.523,0,10-4.477,10-10s-4.477-10-10-10h-30
		c-16.542,0-30,13.809-30,30.351v30c0,16.542,13.458,29.649,30,29.649h30c5.523,0,10-4.477,10-10s-4.477-10-10-10h-30
		c-5.514,0-10-4.135-10-9.649v-30C190.207,92.027,194.693,87.19,200.207,87.19"/>
	<path clip-path="url(#SVGID_2_)" fill="#FFFFFF" d="M330.207,97.19c0-16.569-13.431-30-30-30h-20c-16.569,0-30,13.431-30,30v30
		c0,16.569,13.431,30,30,30h20c16.569,0,30-13.431,30-30V97.19z M310.207,127.19c0,5.523-4.477,10-10,10h-20
		c-5.523,0-10-4.477-10-10v-30c0-5.523,4.477-10,10-10h20c5.523,0,10,4.477,10,10V127.19z"/>
	<path clip-path="url(#SVGID_2_)" fill="#FFFFFF" d="M410.207,27.542c-5.523,0-10,4.477-10,10v31.72
		c-3.13-1.11-6.494-2.071-10-2.071h-20c-16.542,0-30,13.809-30,30.351v30c0,16.542,13.458,29.649,30,29.649h20
		c16.542,0,30-13.107,30-29.649v-30v-60C420.207,32.019,415.73,27.542,410.207,27.542 M400.207,127.19c0,5.523-4.477,10-10,10h-20
		c-5.523,0-10-4.477-10-10v-30c0-5.523,4.477-10,10-10h20c5.523,0,10,4.477,10,10V127.19z"/>
	<path clip-path="url(#SVGID_2_)" fill="#FFFFFF" d="M70.207,67.19h-20c-16.542,0-30,13.633-30,30.175v0.176v30
		c0,16.542,13.458,29.649,30,29.649h30c5.523,0,10-4.477,10-10s-4.477-10-10-10h-30c-5.514,0-10-4.135-10-9.649v-1.72
		c3.13,1.11,6.494,1.369,10,1.369h20c16.542,0,30-13.458,30-30S86.749,67.19,70.207,67.19 M70.207,107.19h-20
		c-5.514,0-10-4.486-10-10c0-5.514,4.486-10,10-10h20c5.514,0,10,4.486,10,10C80.207,102.704,75.721,107.19,70.207,107.19"/>
	<path clip-path="url(#SVGID_2_)" fill="#FFFFFF" d="M460.207,127.19h20c16.542,0,30-13.458,30-30s-13.458-30-30-30h-20
		c-16.542,0-30,13.633-30,30.175v0.176v30c0,16.542,13.458,29.649,30,29.649h30c5.523,0,10-4.477,10-10s-4.477-10-10-10h-30
		c-5.514,0-10-4.135-10-9.649v-1.72C453.337,126.932,456.701,127.19,460.207,127.19 M460.207,87.19h20c5.514,0,10,4.486,10,10
		c0,5.514-4.486,10-10,10h-20c-5.514,0-10-4.486-10-10C450.207,91.676,454.693,87.19,460.207,87.19"/>
	<path clip-path="url(#SVGID_2_)" fill="#52AE32" d="M107.707,160.173L107.707,160.173c-2.382-1.375-3.205-4.448-1.83-6.83
		l50-86.603c1.375-2.381,4.448-3.205,6.83-1.83s3.205,4.449,1.83,6.83l-50,86.603C113.162,160.725,110.089,161.548,107.707,160.173"
		/>
</g>
</svg>
